# xmcd
#
# Track frame offsets: 
#        150
#        14835
#        26938
#        42803
#        52203
#        61648
#        72528
#        84878
#        98935
#        109905
#        129570
#        148033
#        164093
#        175685
#        195065
#        209930
#        232320
#        267855
#        278540
#
# Disc length: 4503 seconds
#
# Revision: 4
# Processed by: cddbd v1.5.2PL0 Copyright (c) Steve Scherf et al.
# Submitted via: ExactAudioCopy v0.99pb4
#
DISCID=21119513
DTITLE=The Paul Butterfield Blues Band - An Anthology: The Elektra Yea
DTITLE=rs - Disc 1
DYEAR=1997
DGENRE=Blues
TTITLE0=Born In Chicago
TTITLE1=Lovin' Cup
TTITLE2=One More Mile
TTITLE3=Off The Wall
TTITLE4=Come On In
TTITLE5=Nut Popper #1
TTITLE6=Ain't No Need To Go No Further/It's Too Late Brother
TTITLE7=Born In Chicago
TTITLE8=Shake Your Money Maker
TTITLE9=Blues With A Feeling
TTITLE10=Thank You Mr. Poobah
TTITLE11=Our Love Is Driftin'
TTITLE12=Mystery Train
TTITLE13=Last Night
TTITLE14=Walkin' Blues
TTITLE15=I Got A Mind To Give Up Living
TTITLE16=Work Song
TTITLE17=All These Blues
TTITLE18=East West
EXTD=
EXTT0=
EXTT1=
EXTT2=
EXTT3=
EXTT4=
EXTT5=
EXTT6=
EXTT7=
EXTT8=
EXTT9=
EXTT10=
EXTT11=
EXTT12=
EXTT13=
EXTT14=
EXTT15=
EXTT16=
EXTT17=
EXTT18=
PLAYORDER=
